<svg version="1.1" id="Layer_1" xmlns="http://www.w3.org/2000/svg" xmlns:xlink="http://www.w3.org/1999/xlink" x="0px" y="0px"
	 width="100%" viewBox="0 0 553 133" enable-background="new 0 0 553 133" xml:space="preserve">
<path fill="#EFF0F0" opacity="1.000000" stroke="none" 
	d="
M366.000000,134.000000 
	C244.000000,134.000000 122.500000,134.000000 1.000000,134.000000 
	C1.000000,89.666664 1.000000,45.333332 1.000000,1.000000 
	C185.333328,1.000000 369.666656,1.000000 554.000000,1.000000 
	C554.000000,45.333332 554.000000,89.666664 554.000000,134.000000 
	C491.500000,134.000000 429.000000,134.000000 366.000000,134.000000 
M30.999182,72.233353 
	C31.030596,71.953751 31.062008,71.674149 31.881342,71.577408 
	C37.596153,72.164955 41.146652,68.916267 41.724674,62.050121 
	C40.059425,62.296738 38.520023,62.524712 36.895084,61.682266 
	C36.821682,61.334259 36.748276,60.986248 36.954884,59.978214 
	C37.447830,58.382473 37.940777,56.786732 39.020596,54.851135 
	C38.817223,52.839508 38.613853,50.827881 37.627728,48.580044 
	C32.462784,51.381012 30.848255,55.484470 32.066750,62.213810 
	C30.965387,63.552971 29.864025,64.892136 28.225534,65.767342 
	C24.547426,62.229290 20.597803,62.927116 15.631282,64.872292 
	C19.300611,68.982780 22.362352,72.257050 28.081512,70.990425 
	C28.387526,71.660286 28.693537,72.330139 28.936485,73.780739 
	C28.199471,75.163078 27.462454,76.545425 25.926268,77.526093 
	C22.398685,77.526093 18.871103,77.526093 14.238079,77.526093 
	C21.603863,85.062599 22.730484,85.429527 28.453697,82.913834 
	C28.661896,82.933998 28.870094,82.954170 29.178005,83.726822 
	C29.783987,86.479607 30.389971,89.232391 30.110161,91.777367 
	C27.392860,91.828461 24.675558,91.879547 21.381540,91.983986 
	C21.512108,92.747940 21.642673,93.511902 22.184958,94.813110 
	C27.508665,99.758781 29.684288,99.979630 33.506271,95.977112 
	C34.041821,95.838776 34.577370,95.700432 35.658199,95.430305 
	C35.819191,95.121292 35.980183,94.812286 36.813564,94.049065 
	C44.302956,93.469383 46.976307,89.108238 46.263245,81.268333 
	C45.457497,81.516075 44.694298,81.707306 43.962746,81.982643 
	C38.731987,83.951363 38.111309,89.123978 35.735226,92.596619 
	C35.229317,92.005714 34.723404,91.414803 34.138664,90.119591 
	C33.172577,87.820213 32.206490,85.520844 31.798506,83.122292 
	C32.179245,83.096581 32.559982,83.070869 33.383064,83.583771 
	C39.038746,83.098808 42.104763,79.811378 42.859634,73.167946 
	C37.926331,73.153694 34.153938,74.664261 32.095078,79.879211 
	C31.732635,79.914894 31.370192,79.950584 30.999750,79.118851 
	C30.938112,77.098854 30.876474,75.078857 30.999182,72.233353 
M55.656673,114.101395 
	C55.513210,113.263466 55.369751,112.425537 54.800823,111.094727 
	C52.638401,109.644135 50.475975,108.193542 48.085220,106.023750 
	C47.847740,105.304344 47.610264,104.584946 48.073147,103.630325 
	C49.648132,100.404045 51.223118,97.177765 53.217495,93.603546 
	C53.050388,92.935677 52.883286,92.267807 52.716179,91.599930 
	C51.994545,91.954529 51.272907,92.309120 49.918385,92.887703 
	C48.184280,95.479736 46.450176,98.071770 44.128227,100.874710 
	C43.731262,101.010376 43.334301,101.146049 42.436581,100.800819 
	C40.836983,99.433754 39.237385,98.066681 37.637787,96.699615 
	C37.397667,96.950775 37.157551,97.201935 36.917435,97.453087 
	C38.173283,100.199211 39.429134,102.945328 39.826885,105.396027 
	C39.528973,105.343460 39.231064,105.290894 38.447235,104.711327 
	C36.659176,104.898293 34.871120,105.085258 32.388512,105.284477 
	C32.075623,106.113960 31.289953,107.476616 31.526552,107.686409 
	C33.064911,109.050499 34.825409,110.164078 36.921837,111.871948 
	C38.411621,111.667290 39.901405,111.462624 41.767799,111.066986 
	C42.002102,110.894569 42.168766,110.671600 42.906277,110.027107 
	C44.254139,109.721703 45.602001,109.416306 47.325638,109.665077 
	C49.917904,111.192772 52.510174,112.720467 55.656673,114.101395 
M87.928970,60.128098 
	C87.943436,60.643803 87.957893,61.159508 87.208038,61.398643 
	C84.653152,60.962643 82.098267,60.526642 78.942894,59.988163 
	C82.348907,68.376129 85.192680,70.161850 91.061142,69.267670 
	C90.956390,71.616585 90.851639,73.965500 90.342255,75.748703 
	C87.647369,72.092110 84.001389,71.117935 79.518837,71.412209 
	C81.961609,78.812889 84.214020,80.750648 90.317184,81.097816 
	C90.489357,82.602074 90.661530,84.106331 90.978508,86.875702 
	C92.397972,85.314941 93.273415,84.534401 93.920395,83.596291 
	C94.788055,82.338211 95.479012,80.958260 96.855179,79.884567 
	C102.403992,81.039322 104.847183,77.546814 107.200455,73.430412 
	C102.192024,71.528404 100.291443,71.708916 95.547638,73.793533 
	C95.042274,71.403503 94.536911,69.013466 94.828896,66.804413 
	C99.817085,67.187065 103.183983,65.036232 105.325302,60.523708 
	C99.574394,57.943291 96.601746,58.600414 92.931625,62.935818 
	C92.222603,63.044434 91.513573,63.153046 90.795731,63.211590 
	C90.795731,63.211590 90.750961,63.187504 90.834473,62.467381 
	C90.231087,60.978790 89.627701,59.490204 89.120995,57.167934 
	C89.600861,51.882740 87.187881,48.240646 82.760941,45.395405 
	C80.866684,53.187469 82.470764,57.299099 87.928970,60.128098 
M77.941872,107.875671 
	C78.651558,107.164871 79.361244,106.454071 80.819901,105.869507 
	C86.329300,111.933746 91.424576,110.879868 95.308388,101.337120 
	C90.381859,102.402641 86.453728,103.252228 82.972542,103.526810 
	C84.248825,101.339249 85.525108,99.151680 86.801392,96.964111 
	C86.459641,96.728722 86.117897,96.493324 85.776146,96.257935 
	C84.235779,97.280716 82.695412,98.303497 80.676849,99.643799 
	C78.917549,95.143486 76.729858,91.429276 69.918686,91.462105 
	C72.806633,96.352303 75.148026,100.317009 77.599770,104.468575 
	C76.834274,105.372208 75.769859,106.628693 74.089165,108.128578 
	C73.153732,109.014488 72.033798,109.778084 71.340195,110.824310 
	C70.766609,111.689499 70.696556,112.888512 70.403397,113.939613 
	C71.514038,113.685402 72.972458,113.784256 73.663254,113.103813 
	C75.121902,111.667023 76.179092,109.822662 77.941872,107.875671 
M299.159454,30.502747 
	C297.013214,34.560413 294.867004,38.618080 292.278717,43.511452 
	C288.768402,36.909481 285.624542,31.110559 282.588226,25.255852 
	C279.222992,18.766853 278.506531,18.400602 271.323212,20.182388 
	C271.323212,32.574074 271.323212,44.969227 271.323212,57.497055 
	C273.871277,57.497055 276.072113,57.497055 278.782043,57.497055 
	C278.782043,49.955368 278.782043,42.759453 278.782043,35.563538 
	C282.176300,39.564667 284.254211,44.017601 286.883636,48.116795 
	C288.258240,50.259777 290.442902,52.895420 292.563232,53.198395 
	C294.021149,53.406719 296.365234,50.219189 297.664368,48.143410 
	C300.291809,43.945358 302.477966,39.471153 304.846100,35.110821 
	C305.307678,35.256470 305.769257,35.402122 306.230835,35.547771 
	C306.230835,42.914307 306.230835,50.280846 306.230835,57.526993 
	C308.942413,57.526993 311.021362,57.526993 313.221741,57.526993 
	C313.221741,44.797718 313.221741,32.399826 313.221741,19.984081 
	C307.855560,18.487864 303.847534,19.186100 301.990051,24.959391 
	C301.437683,26.676250 300.348267,28.220339 299.159454,30.502747 
M363.749023,27.707184 
	C362.505280,26.147528 361.112305,24.682648 360.048950,23.008421 
	C357.848846,19.544594 354.942474,18.581814 351.164246,19.923908 
	C351.164246,32.542805 351.164246,45.040291 351.164246,57.593723 
	C353.709473,57.593723 355.810455,57.593723 358.567139,57.593723 
	C358.567139,50.018566 358.567139,42.690750 358.567139,35.362938 
	C364.768524,41.486328 369.918701,47.909721 374.924988,54.443378 
	C377.191101,57.400806 379.757324,58.781040 383.543823,57.270523 
	C383.543823,44.784683 383.543823,32.393036 383.543823,19.843971 
	C381.087982,19.843971 378.915894,19.843971 376.187592,19.843971 
	C376.187592,27.474470 376.187592,34.646778 376.187592,41.819084 
	C375.847717,41.934738 375.507812,42.050392 375.167938,42.166050 
	C371.510010,37.530106 367.852051,32.894161 363.749023,27.707184 
M227.304901,54.897537 
	C235.025040,49.783558 236.735504,42.300522 235.114960,33.851875 
	C233.688309,26.414013 228.853241,21.492342 221.488190,20.302557 
	C215.019485,19.257570 208.332794,19.561922 201.697662,19.268335 
	C201.697662,32.614128 201.697662,45.130692 201.697662,59.105438 
	C210.459015,57.760376 218.561584,56.516453 227.304901,54.897537 
M397.885284,36.830002 
	C399.674347,27.517679 406.699310,23.363403 415.127136,27.424543 
	C419.812042,29.682058 421.735413,28.422716 423.142761,24.223942 
	C413.657349,14.862040 395.682861,18.287252 390.754669,30.257790 
	C387.340363,38.551235 389.456757,48.182144 395.861359,53.496353 
	C402.285492,58.826748 414.463318,59.768124 421.251678,55.368259 
	C422.153564,54.783688 423.350555,53.752132 423.387177,52.884331 
	C423.593567,47.999134 423.486786,43.100708 423.486786,38.208630 
	C418.569489,38.208630 414.472107,38.208630 410.459930,38.208630 
	C408.098633,43.526947 411.502747,44.370708 415.176941,44.723755 
	C416.812592,49.398865 414.713562,51.062473 410.587341,51.372421 
	C402.878784,51.951454 398.210236,46.965794 397.885284,36.830002 
M329.328705,48.460873 
	C329.328705,46.372452 329.328705,44.284035 329.328705,41.665413 
	C333.790466,41.665413 337.546326,41.665413 341.555542,41.665413 
	C341.555542,39.381271 341.555542,37.640827 341.555542,35.208855 
	C337.426941,35.208855 333.541260,35.208855 329.542236,35.208855 
	C329.542236,31.899494 329.542236,29.282646 329.542236,26.037672 
	C334.838104,26.037672 339.897217,26.037672 345.008728,26.037672 
	C345.008728,23.520290 345.008728,21.637953 345.008728,19.842510 
	C336.735016,19.842510 328.857697,19.842510 321.094727,19.842510 
	C321.094727,32.706886 321.094727,45.111671 321.094727,57.652618 
	C329.247437,57.652618 337.020844,57.652618 344.971069,57.652618 
	C344.971069,55.413727 344.971069,53.393013 344.971069,51.058857 
	C341.046509,51.058857 337.550720,51.220715 334.081665,50.986427 
	C332.491699,50.879044 330.954376,49.992939 329.328705,48.460873 
M261.921204,40.294228 
	C261.921204,38.847305 261.921204,37.400379 261.921204,35.256523 
	C257.570679,35.256523 253.688812,35.256523 249.738373,35.256523 
	C249.738373,31.942413 249.738373,29.334543 249.738373,26.086143 
	C255.039902,26.086143 260.107178,26.086143 265.225922,26.086143 
	C265.225922,23.554340 265.225922,21.683252 265.225922,19.904087 
	C256.952667,19.904087 249.078384,19.904087 241.362579,19.904087 
	C241.362579,32.747570 241.362579,45.136631 241.362579,57.858318 
	C245.619232,57.858318 249.429703,57.858315 253.240173,57.858315 
	C257.193298,57.858315 261.146423,57.858318 265.299286,57.858318 
	C265.299286,55.452656 265.299286,53.564133 265.299286,51.010391 
	C259.930023,51.010391 254.875961,51.010391 249.929474,51.010391 
	C249.929474,47.606602 249.929474,44.892277 249.929474,42.284760 
	C254.113876,41.862892 257.855286,41.485691 261.921204,40.294228 
M498.899475,79.481041 
	C488.622589,73.724800 476.712433,76.090332 471.671234,84.888977 
	C465.865875,95.021416 468.862518,108.042679 478.225830,113.370201 
	C486.418640,118.031723 498.174438,115.620399 503.327515,108.221420 
	C509.471436,99.399757 507.825714,87.145767 498.899475,79.481041 
M235.516678,80.967377 
	C234.632111,81.955482 233.633163,82.863960 232.881027,83.944260 
	C226.651917,92.891251 228.846573,106.738625 237.366898,112.509544 
	C245.969513,118.336197 258.938416,115.955910 264.406433,107.546753 
	C269.403473,99.861885 268.323730,87.956947 262.056122,81.632690 
	C255.447769,74.964630 245.058044,74.499611 235.516678,80.967377 
M334.585938,107.952034 
	C337.480957,110.554573 338.216675,116.297760 344.687469,114.682175 
	C344.687469,103.400047 344.782257,92.277184 344.572632,81.160065 
	C344.545105,79.700584 343.156799,77.228386 342.058075,77.019783 
	C338.593323,76.362000 339.253204,79.350471 339.236816,81.373199 
	C339.179565,88.433952 339.214661,95.495453 339.214661,102.556679 
	C338.800507,102.700661 338.386322,102.844650 337.972168,102.988632 
	C335.748169,100.216484 333.487915,97.472504 331.307983,94.666122 
	C327.225677,89.410690 323.284943,84.040871 319.058289,78.905487 
	C318.163544,77.818352 316.333740,77.249367 314.851440,77.044472 
	C314.382874,76.979706 313.119751,78.870163 313.108093,79.876106 
	C312.982635,90.695564 312.970123,101.518173 313.152283,112.336121 
	C313.168213,113.280655 314.784149,114.198235 315.656891,115.128334 
	C316.495636,114.160675 317.803864,113.304077 318.065125,112.199776 
	C318.475586,110.464783 318.183136,108.562866 318.183533,106.731628 
	C318.184875,100.835587 318.184052,94.939545 318.184052,89.043503 
	C318.660492,88.904259 319.136932,88.765015 319.613373,88.625771 
	C324.452759,94.882690 329.292145,101.139610 334.585938,107.952034 
M518.743713,113.004387 
	C518.743713,104.938629 518.743713,96.872864 518.743713,87.375061 
	C520.755249,89.699913 521.841187,90.840332 522.798279,92.080170 
	C528.183777,99.056473 533.465820,106.114784 538.977356,112.989464 
	C539.856567,114.086143 541.672241,114.574707 543.154785,114.952209 
	C543.562683,115.056076 544.852478,113.745354 544.857849,113.076706 
	C544.949646,101.602371 544.942139,90.126373 544.780457,78.653236 
	C544.771729,78.035797 543.212830,76.965271 542.378235,76.967834 
	C541.541504,76.970406 540.221619,77.905746 539.980896,78.696335 
	C539.561523,80.073761 539.782593,81.653946 539.780273,83.149200 
	C539.769958,89.710823 539.775818,96.272469 539.775818,102.834106 
	C537.665894,102.064178 536.690247,101.034248 535.823669,99.919540 
	C530.414368,92.960999 525.116638,85.912567 519.553650,79.079758 
	C518.589478,77.895508 516.537476,77.596924 514.987976,76.889259 
	C514.444702,78.279282 513.449585,79.663162 513.430664,81.060303 
	C513.294922,91.039177 513.315125,101.021034 513.377441,111.001366 
	C513.406250,115.618690 514.220032,116.015160 518.743713,113.004387 
M383.138092,108.565155 
	C388.135010,101.501724 388.432129,93.828857 384.889343,86.330353 
	C381.358826,78.857834 374.536224,76.492744 366.602051,76.782547 
	C363.943512,76.879662 361.252167,77.029282 358.622040,76.737816 
	C354.293854,76.258163 353.220642,78.190567 353.357239,82.192703 
	C353.612457,89.671349 353.430328,97.164925 353.430328,104.652283 
	C353.430298,115.174835 353.432434,115.044754 363.984802,115.213493 
	C370.987213,115.325462 377.684753,114.946869 383.138092,108.565155 
M65.276642,64.457573 
	C61.943565,64.459465 58.607510,64.551048 55.278179,64.440315 
	C51.218956,64.305298 49.898952,65.790604 51.102856,69.900757 
	C54.145435,80.288193 56.900856,90.759529 59.829315,101.180954 
	C60.095829,102.129387 60.780094,102.960434 61.897449,104.978683 
	C65.240173,92.889259 68.272575,82.041840 71.231384,71.174393 
	C72.891167,65.078140 72.522324,64.644920 65.276642,64.457573 
M274.415558,105.507011 
	C277.996826,113.531525 283.655396,116.780014 291.781921,115.476784 
	C299.557861,114.229782 303.797485,109.511871 304.363251,100.605667 
	C304.773499,94.147804 304.435089,87.645782 304.602600,81.167900 
	C304.715088,76.817520 302.803223,76.044052 298.592285,77.621040 
	C298.592285,85.109795 298.834381,92.570808 298.521393,100.008469 
	C298.232513,106.872246 294.571960,110.629883 289.030060,110.616096 
	C283.308044,110.601852 279.732391,106.450851 279.618622,99.454018 
	C279.515991,93.138969 279.733673,86.814285 279.446655,80.510399 
	C279.389130,79.247383 277.693329,78.058968 276.752899,76.836159 
	C275.765198,77.983521 273.941284,79.118530 273.924103,80.280243 
	C273.803864,88.414291 274.056824,96.553841 274.415558,105.507011 
M396.713928,93.127403 
	C393.898590,100.185936 391.083252,107.244476 388.218231,114.427628 
	C392.259277,115.941956 394.390442,114.954590 395.587311,111.315193 
	C396.292267,109.171448 397.384430,105.710526 398.739288,105.486725 
	C403.435455,104.711037 408.397705,104.603485 413.094147,105.320038 
	C414.592865,105.548714 415.859497,109.020691 416.736908,111.207428 
	C418.150543,114.730644 420.086334,116.208328 424.142365,114.174767 
	C419.406433,102.391273 414.828430,90.809311 410.016876,79.325188 
	C409.535889,78.177139 407.583435,76.894424 406.408173,76.979317 
	C404.951569,77.084534 402.933655,78.227394 402.313324,79.489662 
	C400.263977,83.659706 398.734772,88.085381 396.713928,93.127403 
M203.323181,76.793892 
	C202.924118,77.470856 202.182358,78.145172 202.177094,78.825172 
	C202.091034,89.955536 202.021866,101.087936 202.213867,112.215309 
	C202.231110,113.214149 204.073624,114.181496 205.068451,115.163467 
	C205.995728,114.118813 207.639771,113.127960 207.722961,112.019943 
	C208.038940,107.810257 207.850281,103.562698 207.850281,98.967361 
	C212.700180,98.967361 216.677124,99.126022 220.625549,98.860710 
	C221.670227,98.790512 222.627136,97.414284 223.624344,96.637749 
	C222.640274,95.800278 221.720734,94.352440 220.660004,94.240318 
	C217.537399,93.910255 214.332016,94.342430 211.215759,93.983643 
	C210.027924,93.846878 208.180984,92.484192 208.042389,91.484932 
	C207.622131,88.454735 207.890305,85.329063 207.890305,81.772858 
	C213.075058,81.772858 217.545654,81.994102 221.971420,81.645874 
	C223.408066,81.532845 224.727463,79.929619 226.100479,79.007996 
	C224.773529,78.166389 223.473434,76.653435 222.114960,76.599075 
	C216.145523,76.360176 210.159225,76.542732 203.323181,76.793892 
M422.886200,76.836823 
	C422.268768,77.980110 421.651337,79.123390 421.033905,80.266663 
	C422.113281,80.796501 423.162964,81.693481 424.277863,81.783577 
	C427.022217,82.005333 429.796539,81.856186 432.738251,81.856186 
	C432.888824,83.505783 433.051178,84.472450 433.053802,85.439537 
	C433.077667,94.250748 432.961548,103.065285 433.217407,111.869225 
	C433.250000,112.991348 435.181824,114.058273 436.233795,115.150795 
	C437.150757,114.090630 438.636169,113.138405 438.862427,111.947060 
	C439.289154,109.700027 438.993042,107.315285 438.993378,104.987793 
	C438.994507,97.408730 438.993805,89.829674 438.993805,81.859383 
	C442.247925,81.859383 444.767273,82.144005 447.175690,81.750107 
	C448.567963,81.522400 449.781281,80.200729 451.075165,79.371422 
	C449.802063,78.506180 448.549988,76.930656 447.252380,76.892174 
	C439.445587,76.660652 431.628326,76.781738 422.886200,76.836823 
M142.857071,42.499989 
	C142.857071,72.184937 142.857071,101.869881 142.857071,131.554825 
	C143.470520,131.546600 144.083969,131.538376 144.697418,131.530151 
	C144.697418,92.428558 144.697418,53.326969 144.697418,14.225377 
	C144.083923,14.214104 143.470428,14.202830 142.856934,14.191557 
	C142.856934,23.294367 142.856934,32.397179 142.857071,42.499989 
M462.103485,93.502701 
	C462.101929,89.018135 462.312225,84.516922 461.962067,80.059738 
	C461.864532,78.817818 460.109650,77.706078 459.115082,76.534622 
	C458.131378,77.706871 456.319336,78.861389 456.293823,80.054161 
	C456.069855,90.513359 456.073181,100.981216 456.284576,111.440933 
	C456.309998,112.697464 457.760345,114.675629 458.924500,115.007889 
	C461.636078,115.781807 462.144653,113.740707 462.119873,111.443222 
	C462.058960,105.796661 462.102264,100.148972 462.103485,93.502701 
M54.751877,58.005951 
	C55.375790,61.692310 58.160229,63.481216 61.178574,62.573139 
	C63.598827,61.844997 66.473007,59.432739 67.266998,57.122227 
	C69.234688,51.396225 67.436424,45.903603 63.288452,41.541046 
	C61.935120,40.117699 59.617901,39.610832 58.668724,39.142403 
	C57.639633,43.879395 56.822334,47.697266 55.977074,51.508938 
	C55.549122,53.438763 55.070663,55.357395 54.751877,58.005951 
M78.399292,80.223534 
	C77.802864,80.400764 76.767052,80.455704 76.678398,80.774261 
	C75.849617,83.751823 79.708664,90.358955 82.769920,91.410599 
	C85.525970,92.357407 87.941269,90.328964 86.477730,87.770874 
	C84.814774,84.864197 81.629890,82.828239 78.399292,80.223534 
M91.923012,94.415680 
	C96.908798,95.740677 100.721611,93.729599 103.931427,87.232788 
	C100.343285,87.445282 97.387337,87.606697 94.433372,87.798454 
	C89.926575,88.091011 89.008949,90.181183 91.923012,94.415680 
z"/>
<path fill="#2E2E2D" opacity="1.000000" stroke="none" 
	d="
M299.332184,30.173168 
	C300.348267,28.220339 301.437683,26.676250 301.990051,24.959391 
	C303.847534,19.186100 307.855560,18.487864 313.221741,19.984081 
	C313.221741,32.399826 313.221741,44.797718 313.221741,57.526993 
	C311.021362,57.526993 308.942413,57.526993 306.230835,57.526993 
	C306.230835,50.280846 306.230835,42.914307 306.230835,35.547771 
	C305.769257,35.402122 305.307678,35.256470 304.846100,35.110821 
	C302.477966,39.471153 300.291809,43.945358 297.664368,48.143410 
	C296.365234,50.219189 294.021149,53.406719 292.563232,53.198395 
	C290.442902,52.895420 288.258240,50.259777 286.883636,48.116795 
	C284.254211,44.017601 282.176300,39.564667 278.782043,35.563538 
	C278.782043,42.759453 278.782043,49.955368 278.782043,57.497055 
	C276.072113,57.497055 273.871277,57.497055 271.323212,57.497055 
	C271.323212,44.969227 271.323212,32.574074 271.323212,20.182388 
	C278.506531,18.400602 279.222992,18.766853 282.588226,25.255852 
	C285.624542,31.110559 288.768402,36.909481 292.278717,43.511452 
	C294.867004,38.618080 297.013214,34.560413 299.332184,30.173168 
z"/>
<path fill="#2D2D2C" opacity="1.000000" stroke="none" 
	d="
M363.971558,27.982702 
	C367.852051,32.894161 371.510010,37.530106 375.167938,42.166050 
	C375.507812,42.050392 375.847717,41.934738 376.187592,41.819084 
	C376.187592,34.646778 376.187592,27.474470 376.187592,19.843971 
	C378.915894,19.843971 381.087982,19.843971 383.543823,19.843971 
	C383.543823,32.393036 383.543823,44.784683 383.543823,57.270523 
	C379.757324,58.781040 377.191101,57.400806 374.924988,54.443378 
	C369.918701,47.909721 364.768524,41.486328 358.567139,35.362938 
	C358.567139,42.690750 358.567139,50.018566 358.567139,57.593723 
	C355.810455,57.593723 353.709473,57.593723 351.164246,57.593723 
	C351.164246,45.040291 351.164246,32.542805 351.164246,19.923908 
	C354.942474,18.581814 357.848846,19.544594 360.048950,23.008421 
	C361.112305,24.682648 362.505280,26.147528 363.971558,27.982702 
z"/>
<path fill="#30302F" opacity="1.000000" stroke="none" 
	d="
M226.984528,55.085033 
	C218.561584,56.516453 210.459015,57.760376 201.697662,59.105438 
	C201.697662,45.130692 201.697662,32.614128 201.697662,19.268335 
	C208.332794,19.561922 215.019485,19.257570 221.488190,20.302557 
	C228.853241,21.492342 233.688309,26.414013 235.114960,33.851875 
	C236.735504,42.300522 235.025040,49.783558 226.984528,55.085033 
M226.755142,41.814438 
	C227.803680,29.626715 222.499588,24.751064 210.043976,26.633949 
	C210.043976,34.748230 210.043976,42.882015 210.043976,50.974728 
	C221.178497,51.693550 224.004929,50.218895 226.755142,41.814438 
z"/>
<path fill="#2F2F2E" opacity="1.000000" stroke="none" 
	d="
M397.861053,37.249901 
	C398.210236,46.965794 402.878784,51.951454 410.587341,51.372421 
	C414.713562,51.062473 416.812592,49.398865 415.176941,44.723755 
	C411.502747,44.370708 408.098633,43.526947 410.459930,38.208630 
	C414.472107,38.208630 418.569489,38.208630 423.486786,38.208630 
	C423.486786,43.100708 423.593567,47.999134 423.387177,52.884331 
	C423.350555,53.752132 422.153564,54.783688 421.251678,55.368259 
	C414.463318,59.768124 402.285492,58.826748 395.861359,53.496353 
	C389.456757,48.182144 387.340363,38.551235 390.754669,30.257790 
	C395.682861,18.287252 413.657349,14.862040 423.142761,24.223942 
	C421.735413,28.422716 419.812042,29.682058 415.127136,27.424543 
	C406.699310,23.363403 399.674347,27.517679 397.861053,37.249901 
z"/>
<path fill="#30302F" opacity="1.000000" stroke="none" 
	d="
M329.360931,48.960426 
	C330.954376,49.992939 332.491699,50.879044 334.081665,50.986427 
	C337.550720,51.220715 341.046509,51.058857 344.971069,51.058857 
	C344.971069,53.393013 344.971069,55.413727 344.971069,57.652618 
	C337.020844,57.652618 329.247437,57.652618 321.094727,57.652618 
	C321.094727,45.111671 321.094727,32.706886 321.094727,19.842510 
	C328.857697,19.842510 336.735016,19.842510 345.008728,19.842510 
	C345.008728,21.637953 345.008728,23.520290 345.008728,26.037672 
	C339.897217,26.037672 334.838104,26.037672 329.542236,26.037672 
	C329.542236,29.282646 329.542236,31.899494 329.542236,35.208855 
	C333.541260,35.208855 337.426941,35.208855 341.555542,35.208855 
	C341.555542,37.640827 341.555542,39.381271 341.555542,41.665413 
	C337.546326,41.665413 333.790466,41.665413 329.328705,41.665413 
	C329.328705,44.284035 329.328705,46.372452 329.360931,48.960426 
z"/>
<path fill="#2E2E2D" opacity="1.000000" stroke="none" 
	d="
M261.758942,40.701355 
	C257.855286,41.485691 254.113876,41.862892 249.929474,42.284760 
	C249.929474,44.892277 249.929474,47.606602 249.929474,51.010391 
	C254.875961,51.010391 259.930023,51.010391 265.299286,51.010391 
	C265.299286,53.564133 265.299286,55.452656 265.299286,57.858318 
	C261.146423,57.858318 257.193298,57.858315 253.240173,57.858315 
	C249.429703,57.858315 245.619232,57.858318 241.362579,57.858318 
	C241.362579,45.136631 241.362579,32.747570 241.362579,19.904087 
	C249.078384,19.904087 256.952667,19.904087 265.225922,19.904087 
	C265.225922,21.683252 265.225922,23.554340 265.225922,26.086143 
	C260.107178,26.086143 255.039902,26.086143 249.738373,26.086143 
	C249.738373,29.334543 249.738373,31.942413 249.738373,35.256523 
	C253.688812,35.256523 257.570679,35.256523 261.921204,35.256523 
	C261.921204,37.400379 261.921204,38.847305 261.758942,40.701355 
z"/>
<path fill="#777879" opacity="1.000000" stroke="none" 
	d="
M499.209900,79.677185 
	C507.825714,87.145767 509.471436,99.399757 503.327515,108.221420 
	C498.174438,115.620399 486.418640,118.031723 478.225830,113.370201 
	C468.862518,108.042679 465.865875,95.021416 471.671234,84.888977 
	C476.712433,76.090332 488.622589,73.724800 499.209900,79.677185 
M475.807373,102.230202 
	C478.966431,108.337341 483.674957,111.284821 489.111511,110.558426 
	C495.107361,109.757301 499.036804,106.195869 500.473145,100.260727 
	C502.056305,93.718895 499.926819,86.871780 495.309967,83.658867 
	C489.008331,79.273483 478.960327,81.667679 476.407135,88.867500 
	C475.053650,92.684326 475.764435,97.233177 475.807373,102.230202 
z"/>
<path fill="#767778" opacity="1.000000" stroke="none" 
	d="
M235.785339,80.718155 
	C245.058044,74.499611 255.447769,74.964630 262.056122,81.632690 
	C268.323730,87.956947 269.403473,99.861885 264.406433,107.546753 
	C258.938416,115.955910 245.969513,118.336197 237.366898,112.509544 
	C228.846573,106.738625 226.651917,92.891251 232.881027,83.944260 
	C233.633163,82.863960 234.632111,81.955482 235.785339,80.718155 
M251.068085,81.853569 
	C242.477783,81.391441 237.553619,84.326080 236.020111,90.821632 
	C233.987427,99.431602 236.938293,107.087685 243.245270,109.567490 
	C250.515228,112.425926 257.632477,109.405220 260.374512,102.287918 
	C263.217560,94.908379 260.585175,83.409264 251.068085,81.853569 
z"/>
<path fill="#78797A" opacity="1.000000" stroke="none" 
	d="
M334.358734,107.674278 
	C329.292145,101.139610 324.452759,94.882690 319.613373,88.625771 
	C319.136932,88.765015 318.660492,88.904259 318.184052,89.043503 
	C318.184052,94.939545 318.184875,100.835587 318.183533,106.731628 
	C318.183136,108.562866 318.475586,110.464783 318.065125,112.199776 
	C317.803864,113.304077 316.495636,114.160675 315.656891,115.128334 
	C314.784149,114.198235 313.168213,113.280655 313.152283,112.336121 
	C312.970123,101.518173 312.982635,90.695564 313.108093,79.876106 
	C313.119751,78.870163 314.382874,76.979706 314.851440,77.044472 
	C316.333740,77.249367 318.163544,77.818352 319.058289,78.905487 
	C323.284943,84.040871 327.225677,89.410690 331.307983,94.666122 
	C333.487915,97.472504 335.748169,100.216484 337.972168,102.988632 
	C338.386322,102.844650 338.800507,102.700661 339.214661,102.556679 
	C339.214661,95.495453 339.179565,88.433952 339.236816,81.373199 
	C339.253204,79.350471 338.593323,76.362000 342.058075,77.019783 
	C343.156799,77.228386 344.545105,79.700584 344.572632,81.160065 
	C344.782257,92.277184 344.687469,103.400047 344.687469,114.682175 
	C338.216675,116.297760 337.480957,110.554573 334.358734,107.674278 
z"/>
<path fill="#777879" opacity="1.000000" stroke="none" 
	d="
M518.662354,113.441658 
	C514.220032,116.015160 513.406250,115.618690 513.377441,111.001366 
	C513.315125,101.021034 513.294922,91.039177 513.430664,81.060303 
	C513.449585,79.663162 514.444702,78.279282 514.987976,76.889259 
	C516.537476,77.596924 518.589478,77.895508 519.553650,79.079758 
	C525.116638,85.912567 530.414368,92.960999 535.823669,99.919540 
	C536.690247,101.034248 537.665894,102.064178 539.775818,102.834106 
	C539.775818,96.272469 539.769958,89.710823 539.780273,83.149200 
	C539.782593,81.653946 539.561523,80.073761 539.980896,78.696335 
	C540.221619,77.905746 541.541504,76.970406 542.378235,76.967834 
	C543.212830,76.965271 544.771729,78.035797 544.780457,78.653236 
	C544.942139,90.126373 544.949646,101.602371 544.857849,113.076706 
	C544.852478,113.745354 543.562683,115.056076 543.154785,114.952209 
	C541.672241,114.574707 539.856567,114.086143 538.977356,112.989464 
	C533.465820,106.114784 528.183777,99.056473 522.798279,92.080170 
	C521.841187,90.840332 520.755249,89.699913 518.743713,87.375061 
	C518.743713,96.872864 518.743713,104.938629 518.662354,113.441658 
z"/>
<path fill="#767778" opacity="1.000000" stroke="none" 
	d="
M382.925568,108.862289 
	C377.684753,114.946869 370.987213,115.325462 363.984802,115.213493 
	C353.432434,115.044754 353.430298,115.174835 353.430328,104.652283 
	C353.430328,97.164925 353.612457,89.671349 353.357239,82.192703 
	C353.220642,78.190567 354.293854,76.258163 358.622040,76.737816 
	C361.252167,77.029282 363.943512,76.879662 366.602051,76.782547 
	C374.536224,76.492744 381.358826,78.857834 384.889343,86.330353 
	C388.432129,93.828857 388.135010,101.501724 382.925568,108.862289 
M367.930908,110.655586 
	C378.480164,108.639702 382.779938,102.482712 380.806213,92.218979 
	C379.083954,83.262840 372.130463,79.954430 359.253082,82.406738 
	C359.253082,90.362747 359.377167,98.465187 359.193542,106.560654 
	C359.117432,109.916069 360.424164,111.087395 363.591980,110.740623 
	C364.742432,110.614677 365.917206,110.710487 367.930908,110.655586 
z"/>
<path fill="#FBB53C" opacity="1.000000" stroke="none" 
	d="
M65.738747,64.458740 
	C72.522324,64.644920 72.891167,65.078140 71.231384,71.174393 
	C68.272575,82.041840 65.240173,92.889259 61.897449,104.978683 
	C60.780094,102.960434 60.095829,102.129387 59.829315,101.180954 
	C56.900856,90.759529 54.145435,80.288193 51.102856,69.900757 
	C49.898952,65.790604 51.218956,64.305298 55.278179,64.440315 
	C58.607510,64.551048 61.943565,64.459465 65.738747,64.458740 
z"/>
<path fill="#747576" opacity="1.000000" stroke="none" 
	d="
M274.302979,105.099319 
	C274.056824,96.553841 273.803864,88.414291 273.924103,80.280243 
	C273.941284,79.118530 275.765198,77.983521 276.752899,76.836159 
	C277.693329,78.058968 279.389130,79.247383 279.446655,80.510399 
	C279.733673,86.814285 279.515991,93.138969 279.618622,99.454018 
	C279.732391,106.450851 283.308044,110.601852 289.030060,110.616096 
	C294.571960,110.629883 298.232513,106.872246 298.521393,100.008469 
	C298.834381,92.570808 298.592285,85.109795 298.592285,77.621040 
	C302.803223,76.044052 304.715088,76.817520 304.602600,81.167900 
	C304.435089,87.645782 304.773499,94.147804 304.363251,100.605667 
	C303.797485,109.511871 299.557861,114.229782 291.781921,115.476784 
	C283.655396,116.780014 277.996826,113.531525 274.302979,105.099319 
z"/>
<path fill="#777879" opacity="1.000000" stroke="none" 
	d="
M396.859924,92.770164 
	C398.734772,88.085381 400.263977,83.659706 402.313324,79.489662 
	C402.933655,78.227394 404.951569,77.084534 406.408173,76.979317 
	C407.583435,76.894424 409.535889,78.177139 410.016876,79.325188 
	C414.828430,90.809311 419.406433,102.391273 424.142365,114.174767 
	C420.086334,116.208328 418.150543,114.730644 416.736908,111.207428 
	C415.859497,109.020691 414.592865,105.548714 413.094147,105.320038 
	C408.397705,104.603485 403.435455,104.711037 398.739288,105.486725 
	C397.384430,105.710526 396.292267,109.171448 395.587311,111.315193 
	C394.390442,114.954590 392.259277,115.941956 388.218231,114.427628 
	C391.083252,107.244476 393.898590,100.185936 396.859924,92.770164 
M410.816071,100.639664 
	C411.223328,100.012512 412.115204,99.213875 411.963287,98.784584 
	C410.340332,94.198112 408.552124,89.670113 406.809265,85.126068 
	C406.360840,85.137604 405.912415,85.149139 405.464020,85.160675 
	C403.595428,90.102539 401.726807,95.044395 399.573242,100.739952 
	C403.725433,100.739952 406.844513,100.739952 410.816071,100.639664 
z"/>
<path fill="#7B7C7D" opacity="1.000000" stroke="none" 
	d="
M203.751099,76.683197 
	C210.159225,76.542732 216.145523,76.360176 222.114960,76.599075 
	C223.473434,76.653435 224.773529,78.166389 226.100479,79.007996 
	C224.727463,79.929619 223.408066,81.532845 221.971420,81.645874 
	C217.545654,81.994102 213.075058,81.772858 207.890305,81.772858 
	C207.890305,85.329063 207.622131,88.454735 208.042389,91.484932 
	C208.180984,92.484192 210.027924,93.846878 211.215759,93.983643 
	C214.332016,94.342430 217.537399,93.910255 220.660004,94.240318 
	C221.720734,94.352440 222.640274,95.800278 223.624344,96.637749 
	C222.627136,97.414284 221.670227,98.790512 220.625549,98.860710 
	C216.677124,99.126022 212.700180,98.967361 207.850281,98.967361 
	C207.850281,103.562698 208.038940,107.810257 207.722961,112.019943 
	C207.639771,113.127960 205.995728,114.118813 205.068451,115.163467 
	C204.073624,114.181496 202.231110,113.214149 202.213867,112.215309 
	C202.021866,101.087936 202.091034,89.955536 202.177094,78.825172 
	C202.182358,78.145172 202.924118,77.470856 203.751099,76.683197 
z"/>
<path fill="#797A7B" opacity="1.000000" stroke="none" 
	d="
M423.350403,76.810791 
	C431.628326,76.781738 439.445587,76.660652 447.252380,76.892174 
	C448.549988,76.930656 449.802063,78.506180 451.075165,79.371414 
	C449.781281,80.200729 448.567963,81.522400 447.175690,81.750107 
	C444.767273,82.144005 442.247925,81.859383 438.993805,81.859383 
	C438.993805,89.829674 438.994507,97.408730 438.993378,104.987793 
	C438.993042,107.315285 439.289154,109.700027 438.862427,111.947060 
	C438.636169,113.138405 437.150757,114.090630 436.233826,115.150787 
	C435.181824,114.058273 433.250000,112.991348 433.217407,111.869225 
	C432.961548,103.065285 433.077667,94.250748 433.053802,85.439537 
	C433.051178,84.472450 432.888824,83.505783 432.738251,81.856186 
	C429.796539,81.856186 427.022217,82.005333 424.277863,81.783577 
	C423.162964,81.693481 422.113281,80.796501 421.033905,80.266663 
	C421.651337,79.123390 422.268768,77.980110 423.350403,76.810791 
z"/>
<path fill="#6B6C6B" opacity="1.000000" stroke="none" 
	d="
M142.856995,41.999989 
	C142.856934,32.397179 142.856934,23.294367 142.856934,14.191557 
	C143.470428,14.202830 144.083923,14.214104 144.697418,14.225377 
	C144.697418,53.326969 144.697418,92.428558 144.697418,131.530151 
	C144.083969,131.538376 143.470520,131.546600 142.857071,131.554825 
	C142.857071,101.869881 142.857071,72.184937 142.856995,41.999989 
z"/>
<path fill="#7B7C7D" opacity="1.000000" stroke="none" 
	d="
M462.103577,94.002220 
	C462.102264,100.148972 462.058960,105.796661 462.119873,111.443222 
	C462.144653,113.740707 461.636078,115.781807 458.924500,115.007889 
	C457.760345,114.675629 456.309998,112.697464 456.284576,111.440933 
	C456.073181,100.981216 456.069855,90.513359 456.293823,80.054161 
	C456.319336,78.861389 458.131378,77.706871 459.115082,76.534622 
	C460.109650,77.706078 461.864532,78.817818 461.962067,80.059738 
	C462.312225,84.516922 462.101929,89.018135 462.103577,94.002220 
z"/>
<path fill="#FABB4E" opacity="1.000000" stroke="none" 
	d="
M54.683456,57.643517 
	C55.070663,55.357395 55.549122,53.438763 55.977074,51.508938 
	C56.822334,47.697266 57.639633,43.879395 58.668724,39.142403 
	C59.617901,39.610832 61.935120,40.117699 63.288452,41.541046 
	C67.436424,45.903603 69.234688,51.396225 67.266998,57.122227 
	C66.473007,59.432739 63.598827,61.844997 61.178574,62.573139 
	C58.160229,63.481216 55.375790,61.692310 54.683456,57.643517 
M58.948803,56.245579 
	C59.936672,56.929367 61.637383,58.349228 61.805439,58.186478 
	C64.305153,55.765678 64.738876,52.982998 62.168896,48.889393 
	C60.863171,51.575207 59.913967,53.527672 58.948803,56.245579 
z"/>
<path fill="#FBB845" opacity="1.000000" stroke="none" 
	d="
M80.070930,105.743271 
	C79.361244,106.454071 78.651558,107.164871 77.221741,107.962608 
	C75.902893,107.994759 75.304161,107.939964 74.705444,107.885178 
	C75.769859,106.628693 76.834274,105.372208 77.599770,104.468575 
	C75.148026,100.317009 72.806633,96.352303 69.918686,91.462105 
	C76.729858,91.429276 78.917549,95.143486 80.676849,99.643799 
	C82.695412,98.303497 84.235779,97.280716 85.776146,96.257935 
	C86.117897,96.493324 86.459641,96.728722 86.801392,96.964111 
	C85.525108,99.151680 84.248825,101.339249 82.494049,103.822136 
	C81.367340,104.659401 80.719139,105.201332 80.070930,105.743271 
z"/>
<path fill="#FABC51" opacity="1.000000" stroke="none" 
	d="
M36.100765,93.330467 
	C38.111309,89.123978 38.731987,83.951363 43.962746,81.982643 
	C44.694298,81.707306 45.457497,81.516075 46.263245,81.268333 
	C46.976307,89.108238 44.302956,93.469383 36.456955,94.067383 
	C36.085289,93.833939 36.085426,93.582191 36.100765,93.330467 
z"/>
<path fill="#FABB4E" opacity="1.000000" stroke="none" 
	d="
M78.752945,80.318649 
	C81.629890,82.828239 84.814774,84.864197 86.477730,87.770874 
	C87.941269,90.328964 85.525970,92.357407 82.769920,91.410599 
	C79.708664,90.358955 75.849617,83.751823 76.678398,80.774261 
	C76.767052,80.455704 77.802864,80.400764 78.752945,80.318649 
z"/>
<path fill="#FBB847" opacity="1.000000" stroke="none" 
	d="
M91.665382,94.160324 
	C89.008949,90.181183 89.926575,88.091011 94.433372,87.798454 
	C97.387337,87.606697 100.343285,87.445282 103.931427,87.232788 
	C100.721611,93.729599 96.908798,95.740677 91.665382,94.160324 
z"/>
<path fill="#FBB847" opacity="1.000000" stroke="none" 
	d="
M80.445419,105.806389 
	C80.719139,105.201332 81.367340,104.659401 82.270576,104.109634 
	C86.453728,103.252228 90.381859,102.402641 95.308388,101.337120 
	C91.424576,110.879868 86.329300,111.933746 80.445419,105.806389 
z"/>
<path fill="#FBB949" opacity="1.000000" stroke="none" 
	d="
M90.917801,68.388588 
	C85.192680,70.161850 82.348907,68.376129 78.942894,59.988163 
	C82.098267,60.526642 84.653152,60.962643 87.677330,61.794281 
	C89.014732,62.522449 89.882851,62.854977 90.750961,63.187504 
	C90.750961,63.187504 90.795731,63.211590 90.824463,63.606644 
	C90.874725,65.463997 90.896263,66.926292 90.917801,68.388588 
z"/>
<path fill="#F6D7A3" opacity="1.000000" stroke="none" 
	d="
M90.989471,68.828125 
	C90.896263,66.926292 90.874725,65.463997 90.828873,63.631680 
	C91.513573,63.153046 92.222603,63.044434 93.366119,63.263489 
	C93.877594,64.601921 93.954567,65.612679 94.031540,66.623436 
	C94.536911,69.013466 95.042274,71.403503 95.798874,74.338440 
	C96.115341,76.465767 96.180580,78.048203 96.245827,79.630630 
	C95.479012,80.958260 94.788055,82.338211 93.920395,83.596291 
	C93.273415,84.534401 92.397972,85.314941 90.978508,86.875702 
	C90.661530,84.106331 90.489357,82.602074 90.146332,80.557098 
	C90.232613,78.782387 90.489746,77.548401 90.746887,76.314415 
	C90.851639,73.965500 90.956390,71.616585 90.989471,68.828125 
z"/>
<path fill="#FBB949" opacity="1.000000" stroke="none" 
	d="
M90.544571,76.031555 
	C90.489746,77.548401 90.232613,78.782387 89.862068,80.316940 
	C84.214020,80.750648 81.961609,78.812889 79.518837,71.412209 
	C84.001389,71.117935 87.647369,72.092110 90.544571,76.031555 
z"/>
<path fill="#FABB4E" opacity="1.000000" stroke="none" 
	d="
M32.630669,79.794174 
	C34.153938,74.664261 37.926331,73.153694 42.859634,73.167946 
	C42.104763,79.811378 39.038746,83.098808 33.193745,82.904930 
	C32.879837,81.415451 32.755253,80.604813 32.630669,79.794174 
z"/>
<path fill="#FBB847" opacity="1.000000" stroke="none" 
	d="
M27.866966,70.270348 
	C22.362352,72.257050 19.300611,68.982780 15.631282,64.872292 
	C20.597803,62.927116 24.547426,62.229290 28.520323,66.198761 
	C28.815111,66.630173 28.926428,67.017967 28.896315,67.311264 
	C28.533123,68.493149 28.200045,69.381752 27.866966,70.270348 
z"/>
<path fill="#FBB949" opacity="1.000000" stroke="none" 
	d="
M27.842449,82.763374 
	C22.730484,85.429527 21.603863,85.062599 14.238079,77.526093 
	C18.871103,77.526093 22.398685,77.526093 26.461412,77.993454 
	C27.278521,79.895004 27.560484,81.329185 27.842449,82.763374 
z"/>
<path fill="#FBB94A" opacity="1.000000" stroke="none" 
	d="
M96.550507,79.757599 
	C96.180580,78.048203 96.115341,76.465767 96.127075,74.575058 
	C100.291443,71.708916 102.192024,71.528404 107.200455,73.430412 
	C104.847183,77.546814 102.403992,81.039322 96.550507,79.757599 
z"/>
<path fill="#FBB94A" opacity="1.000000" stroke="none" 
	d="
M36.980621,62.752686 
	C38.520023,62.524712 40.059425,62.296738 41.724674,62.050121 
	C41.146652,68.916267 37.596153,72.164955 31.495590,71.138214 
	C31.110355,69.484192 31.110872,68.269371 31.365910,66.861313 
	C33.407158,65.362946 35.193890,64.057816 36.980621,62.752686 
z"/>
<path fill="#FBB94A" opacity="1.000000" stroke="none" 
	d="
M94.430222,66.713928 
	C93.954567,65.612679 93.877594,64.601921 93.719696,63.214897 
	C96.601746,58.600414 99.574394,57.943291 105.325302,60.523708 
	C103.183983,65.036232 99.817085,67.187065 94.430222,66.713928 
z"/>
<path fill="#FABB4E" opacity="1.000000" stroke="none" 
	d="
M87.955505,59.363888 
	C82.470764,57.299099 80.866684,53.187469 82.760941,45.395405 
	C87.187881,48.240646 89.600861,51.882740 88.819077,57.743671 
	C88.329948,58.667568 88.142723,59.015728 87.955505,59.363888 
z"/>
<path fill="#FBB94A" opacity="1.000000" stroke="none" 
	d="
M44.716072,100.663803 
	C46.450176,98.071770 48.184280,95.479736 50.526028,92.927170 
	C51.688480,93.294914 52.243294,93.623207 52.798103,93.951492 
	C51.223118,97.177765 49.648132,100.404045 47.468987,103.875244 
	C44.664589,106.453522 43.382645,106.030754 43.364243,102.834404 
	C44.042416,102.107063 44.379242,101.385437 44.716072,100.663803 
z"/>
<path fill="#FBB949" opacity="1.000000" stroke="none" 
	d="
M32.517570,61.567947 
	C30.848255,55.484470 32.462784,51.381012 37.899704,49.145500 
	C38.259029,51.537636 38.346378,53.364311 38.433723,55.190990 
	C37.940777,56.786732 37.447830,58.382473 36.514519,60.421329 
	C34.888630,61.098946 33.703098,61.333447 32.517570,61.567947 
z"/>
<path fill="#FBB94A" opacity="1.000000" stroke="none" 
	d="
M32.950630,95.905945 
	C29.684288,99.979630 27.508665,99.758781 22.034472,94.154831 
	C21.908743,92.974571 21.933500,92.452606 21.958258,91.930634 
	C24.675558,91.879547 27.392860,91.828461 30.688715,92.172989 
	C31.828390,93.681053 32.389511,94.793503 32.950630,95.905945 
z"/>
<path fill="#FBB53C" opacity="1.000000" stroke="none" 
	d="
M38.933159,105.238327 
	C39.231064,105.290894 39.528973,105.343460 40.399044,105.767395 
	C41.403397,107.558533 41.835590,108.978302 42.267784,110.398071 
	C42.168766,110.671600 42.002102,110.894569 41.092518,111.086319 
	C39.115891,111.190323 37.814541,111.274986 36.513191,111.359657 
	C34.825409,110.164078 33.064911,109.050499 31.526552,107.686409 
	C31.289953,107.476616 32.075623,106.113960 33.006180,105.488708 
	C35.393616,105.541405 37.163387,105.389862 38.933159,105.238327 
z"/>
<path fill="#F9C265" opacity="1.000000" stroke="none" 
	d="
M42.587029,110.212585 
	C41.835590,108.978302 41.403397,107.558533 40.828094,105.915108 
	C39.429134,102.945328 38.173283,100.199211 36.917435,97.453087 
	C37.157551,97.201935 37.397667,96.950775 37.637787,96.699615 
	C39.237385,98.066681 40.836983,99.433754 42.700336,101.299751 
	C42.983696,102.145828 43.003300,102.492966 43.022903,102.840111 
	C43.382645,106.030754 44.664589,106.453522 47.118805,103.992859 
	C47.610264,104.584946 47.847740,105.304344 47.904518,106.592735 
	C47.465836,107.811447 47.207851,108.461174 46.949867,109.110901 
	C45.602001,109.416306 44.254139,109.721703 42.587029,110.212585 
z"/>
<path fill="#F8CB7E" opacity="1.000000" stroke="none" 
	d="
M33.228451,95.941528 
	C32.389511,94.793503 31.828390,93.681053 31.131611,92.276894 
	C30.389971,89.232391 29.783987,86.479607 29.367517,83.252464 
	C30.015644,82.534912 30.474258,82.291718 30.992348,82.346313 
	C31.114679,82.836571 31.177538,83.029015 31.240398,83.221466 
	C32.206490,85.520844 33.172577,87.820213 33.909081,90.680328 
	C34.157303,92.681404 34.635109,94.121750 35.112919,95.562096 
	C34.577370,95.700432 34.041821,95.838776 33.228451,95.941528 
z"/>
<path fill="#FBB847" opacity="1.000000" stroke="none" 
	d="
M74.397301,108.006882 
	C75.304161,107.939964 75.902893,107.994759 76.951294,108.097519 
	C76.179092,109.822662 75.121902,111.667023 73.663254,113.103813 
	C72.972458,113.784256 71.514038,113.685402 70.403397,113.939613 
	C70.696556,112.888512 70.766609,111.689499 71.340195,110.824310 
	C72.033798,109.778084 73.153732,109.014488 74.397301,108.006882 
z"/>
<path fill="#FBB94A" opacity="1.000000" stroke="none" 
	d="
M47.137753,109.387985 
	C47.207851,108.461174 47.465836,107.811447 48.018684,106.952339 
	C50.475975,108.193542 52.638401,109.644135 54.954483,111.783279 
	C55.106239,113.063934 55.104340,113.656052 55.102440,114.248161 
	C52.510174,112.720467 49.917904,111.192772 47.137753,109.387985 
z"/>
<path fill="#F7D294" opacity="1.000000" stroke="none" 
	d="
M30.932873,82.048515 
	C30.474258,82.291718 30.015644,82.534912 29.317661,82.876221 
	C28.870094,82.954170 28.661896,82.933998 28.148073,82.838608 
	C27.560484,81.329185 27.278521,79.895004 26.860996,78.194290 
	C27.462454,76.545425 28.199471,75.163078 29.271664,73.396423 
	C30.009504,73.027695 30.412170,73.043274 30.814835,73.058861 
	C30.876474,75.078857 30.938112,77.098854 30.991150,79.896164 
	C30.965990,81.131821 30.949430,81.590172 30.932873,82.048515 
z"/>
<path fill="#F4DFBB" opacity="1.000000" stroke="none" 
	d="
M32.292160,61.890877 
	C33.703098,61.333447 34.888630,61.098946 36.374512,60.751343 
	C36.748276,60.986248 36.821682,61.334259 36.937851,62.217476 
	C35.193890,64.057816 33.407158,65.362946 31.001503,66.847351 
	C29.897194,67.023743 29.411810,67.020851 28.926428,67.017967 
	C28.926428,67.017967 28.815111,66.630173 28.788887,66.430733 
	C29.864025,64.892136 30.965387,63.552971 32.292160,61.890877 
z"/>
<path fill="#F5DAAB" opacity="1.000000" stroke="none" 
	d="
M28.896315,67.311264 
	C29.411810,67.020851 29.897194,67.023743 30.746983,67.040588 
	C31.110872,68.269371 31.110355,69.484192 31.101627,71.046783 
	C31.062008,71.674149 31.030596,71.953751 30.907009,72.646103 
	C30.412170,73.043274 30.009504,73.027695 29.303194,73.006058 
	C28.693537,72.330139 28.387526,71.660286 27.974239,70.630386 
	C28.200045,69.381752 28.533123,68.493149 28.896315,67.311264 
z"/>
<path fill="#F5DAAB" opacity="1.000000" stroke="none" 
	d="
M38.727161,55.021065 
	C38.346378,53.364311 38.259029,51.537636 38.291084,49.263603 
	C38.613853,50.827881 38.817223,52.839508 38.727161,55.021065 
z"/>
<path fill="#F6D7A3" opacity="1.000000" stroke="none" 
	d="
M87.942238,59.745995 
	C88.142723,59.015728 88.329948,58.667568 88.770737,58.160511 
	C89.627701,59.490204 90.231087,60.978790 90.792717,62.827442 
	C89.882851,62.854977 89.014732,62.522449 88.059494,61.932568 
	C87.957893,61.159508 87.943436,60.643803 87.942238,59.745995 
z"/>
<path fill="#F9C265" opacity="1.000000" stroke="none" 
	d="
M38.690197,104.974823 
	C37.163387,105.389862 35.393616,105.541405 33.353455,105.482582 
	C34.871120,105.085258 36.659176,104.898293 38.690197,104.974823 
z"/>
<path fill="#F9C265" opacity="1.000000" stroke="none" 
	d="
M36.717514,111.615799 
	C37.814541,111.274986 39.115891,111.190323 40.904213,111.181808 
	C39.901405,111.462624 38.411621,111.667290 36.717514,111.615799 
z"/>
<path fill="#F9C265" opacity="1.000000" stroke="none" 
	d="
M53.007797,93.777519 
	C52.243294,93.623207 51.688480,93.294914 50.842468,92.815170 
	C51.272907,92.309120 51.994545,91.954529 52.716179,91.599930 
	C52.883286,92.267807 53.050388,92.935677 53.007797,93.777519 
z"/>
<path fill="#F9C265" opacity="1.000000" stroke="none" 
	d="
M35.385559,95.496201 
	C34.635109,94.121750 34.157303,92.681404 33.948494,91.032478 
	C34.723404,91.414803 35.229317,92.005714 35.917995,92.963547 
	C36.085426,93.582191 36.085289,93.833939 36.120762,94.294487 
	C35.980183,94.812286 35.819191,95.121292 35.385559,95.496201 
z"/>
<path fill="#F5DAAB" opacity="1.000000" stroke="none" 
	d="
M30.992346,82.346313 
	C30.949430,81.590172 30.965990,81.131821 30.995150,80.329880 
	C31.370192,79.950584 31.732635,79.914894 32.362873,79.836693 
	C32.755253,80.604813 32.879837,81.415451 32.972572,82.635628 
	C32.559982,83.070869 32.179245,83.096581 31.519451,83.171875 
	C31.177538,83.029015 31.114679,82.836571 30.992346,82.346313 
z"/>
<path fill="#F9C265" opacity="1.000000" stroke="none" 
	d="
M55.379555,114.174774 
	C55.104340,113.656052 55.106239,113.063934 55.167213,112.029716 
	C55.369751,112.425537 55.513210,113.263466 55.379555,114.174774 
z"/>
<path fill="#F8CB7E" opacity="1.000000" stroke="none" 
	d="
M43.364246,102.834404 
	C43.003300,102.492966 42.983696,102.145828 42.950714,101.540199 
	C43.334301,101.146049 43.731262,101.010376 44.422150,100.769257 
	C44.379242,101.385437 44.042416,102.107063 43.364246,102.834404 
z"/>
<path fill="#F8CB7E" opacity="1.000000" stroke="none" 
	d="
M21.669899,91.957306 
	C21.933500,92.452606 21.908743,92.974571 21.828613,93.886200 
	C21.642673,93.511902 21.512108,92.747940 21.669899,91.957306 
z"/>
<path fill="#EBECED" opacity="1.000000" stroke="none" 
	d="
M226.672684,42.215126 
	C224.004929,50.218895 221.178497,51.693550 210.043976,50.974728 
	C210.043976,42.882015 210.043976,34.748230 210.043976,26.633949 
	C222.499588,24.751064 227.803680,29.626715 226.672684,42.215126 
z"/>
<path fill="#ECEDEE" opacity="1.000000" stroke="none" 
	d="
M475.675354,101.840881 
	C475.764435,97.233177 475.053650,92.684326 476.407135,88.867500 
	C478.960327,81.667679 489.008331,79.273483 495.309967,83.658867 
	C499.926819,86.871780 502.056305,93.718895 500.473145,100.260727 
	C499.036804,106.195869 495.107361,109.757301 489.111511,110.558426 
	C483.674957,111.284821 478.966431,108.337341 475.675354,101.840881 
z"/>
<path fill="#ECEDEE" opacity="1.000000" stroke="none" 
	d="
M251.489410,81.910019 
	C260.585175,83.409264 263.217560,94.908379 260.374512,102.287918 
	C257.632477,109.405220 250.515228,112.425926 243.245270,109.567490 
	C236.938293,107.087685 233.987427,99.431602 236.020111,90.821632 
	C237.553619,84.326080 242.477783,81.391441 251.489410,81.910019 
z"/>
<path fill="#EBECED" opacity="1.000000" stroke="none" 
	d="
M367.505890,110.680351 
	C365.917206,110.710487 364.742432,110.614677 363.591980,110.740623 
	C360.424164,111.087395 359.117432,109.916069 359.193542,106.560654 
	C359.377167,98.465187 359.253082,90.362747 359.253082,82.406738 
	C372.130463,79.954430 379.083954,83.262840 380.806213,92.218979 
	C382.779938,102.482712 378.480164,108.639702 367.505890,110.680351 
z"/>
<path fill="#E0E1E2" opacity="1.000000" stroke="none" 
	d="
M410.389832,100.689804 
	C406.844513,100.739952 403.725433,100.739952 399.573242,100.739952 
	C401.726807,95.044395 403.595428,90.102539 405.464020,85.160675 
	C405.912415,85.149139 406.360840,85.137604 406.809265,85.126068 
	C408.552124,89.670113 410.340332,94.198112 411.963287,98.784584 
	C412.115204,99.213875 411.223328,100.012512 410.389832,100.689804 
z"/>
<path fill="#F3E4C9" opacity="1.000000" stroke="none" 
	d="
M58.956783,55.862854 
	C59.913967,53.527672 60.863171,51.575207 62.168896,48.889393 
	C64.738876,52.982998 64.305153,55.765678 61.805439,58.186478 
	C61.637383,58.349228 59.936672,56.929367 58.956783,55.862854 
z"/>
</svg>